<?xml version="1.0" standalone="no"?>
<!DOCTYPE svg PUBLIC "-//W3C//DTD SVG 20010904//EN"
 "http://www.w3.org/TR/2001/REC-SVG-20010904/DTD/svg10.dtd">
<svg version="1.0" xmlns="http://www.w3.org/2000/svg"
 width="96.000000pt" height="96.000000pt" viewBox="0 0 96.000000 96.000000"
 preserveAspectRatio="xMidYMid meet">

<g transform="translate(0.000000,96.000000) scale(0.100000,-0.100000)"
fill="#000000" stroke="none">
<path d="M375 860 c-16 -18 -31 -20 -137 -20 l-118 0 0 -40 0 -40 360 0 360 0
0 40 0 40 -118 0 c-106 0 -121 2 -137 20 -15 17 -31 20 -105 20 -74 0 -90 -3
-105 -20z"/>
<path d="M180 653 c0 -16 13 -140 30 -278 37 -322 13 -295 270 -295 257 0 233
-27 270 295 17 138 30 262 30 278 l0 27 -300 0 -300 0 0 -27z"/>
</g>
</svg>
