<?xml version="1.0" standalone="no"?>
<!DOCTYPE svg PUBLIC "-//W3C//DTD SVG 20010904//EN"
 "http://www.w3.org/TR/2001/REC-SVG-20010904/DTD/svg10.dtd">
<svg version="1.0" xmlns="http://www.w3.org/2000/svg"
 width="96.000000pt" height="96.000000pt" viewBox="0 0 96.000000 96.000000"
 preserveAspectRatio="xMidYMid meet">

<g transform="translate(0.000000,96.000000) scale(0.100000,-0.100000)"
fill="#000000" stroke="none">
<path d="M266 864 c-72 -23 -150 -104 -172 -179 -39 -137 18 -270 146 -336 67
-35 176 -33 247 4 29 15 56 27 60 28 5 0 10 -14 13 -30 4 -22 38 -64 123 -150
l118 -119 39 41 39 42 -117 118 c-99 99 -121 117 -148 117 -17 0 -33 2 -36 5
-3 3 8 32 26 63 27 50 31 67 31 132 -1 116 -51 198 -155 250 -57 29 -149 35
-214 14z m204 -98 c59 -39 85 -89 85 -166 0 -78 -26 -127 -88 -168 -56 -37
-153 -39 -210 -3 -76 47 -111 140 -88 229 14 51 75 117 123 131 53 16 135 6
178 -23z"/>
</g>
</svg>
